<mxfile host="65bd71144e">
    <diagram id="Wv_hvm3lRhc7KEfCUdPD" name="main conception">
        <mxGraphModel dx="1128" dy="496" grid="1" gridSize="10" guides="1" tooltips="1" connect="1" arrows="1" fold="1" page="1" pageScale="1" pageWidth="827" pageHeight="1169" math="0" shadow="0">
            <root>
                <mxCell id="0"/>
                <mxCell id="1" parent="0"/>
                <mxCell id="I_e_zk9sA9EwjSFyFDCd-1" value="&lt;h1&gt;FMCW&lt;/h1&gt;&lt;p&gt;макет РЛС, в котором оцифровка сигнала идет через jack3.5mm&lt;/p&gt;" style="text;html=1;strokeColor=none;fillColor=none;spacing=5;spacingTop=-20;whiteSpace=wrap;overflow=hidden;rounded=0;" parent="1" vertex="1">
                    <mxGeometry x="300" y="20" width="190" height="120" as="geometry"/>
                </mxCell>
            </root>
        </mxGraphModel>
    </diagram>
    <diagram id="n2A7cnUESW6SI3tPRSJ5" name="soft design">
        <mxGraphModel dx="959" dy="422" grid="1" gridSize="10" guides="1" tooltips="1" connect="1" arrows="1" fold="1" page="1" pageScale="1" pageWidth="827" pageHeight="1169" math="0" shadow="0">
            <root>
                <mxCell id="v9DOlygWLC-ijF4w8fHy-0"/>
                <mxCell id="v9DOlygWLC-ijF4w8fHy-1" parent="v9DOlygWLC-ijF4w8fHy-0"/>
            </root>
        </mxGraphModel>
    </diagram>
    <diagram id="mAT2H4j224bPGSDz1ItH" name="hw design">
        <mxGraphModel dx="959" dy="422" grid="1" gridSize="10" guides="1" tooltips="1" connect="1" arrows="1" fold="1" page="1" pageScale="1" pageWidth="827" pageHeight="1169" math="0" shadow="0">
            <root>
                <mxCell id="xzInGvxn6jEy2bVftk6I-0"/>
                <mxCell id="xzInGvxn6jEy2bVftk6I-1" parent="xzInGvxn6jEy2bVftk6I-0"/>
            </root>
        </mxGraphModel>
    </diagram>
</mxfile>